<svg class="icon" viewBox="0 0 1077 1024" xmlns="http://www.w3.org/2000/svg" width="21.035" height="20"><defs><style/></defs><path d="M267.217 878.536a69.79 69.79 0 1 1 0 139.58 69.79 69.79 0 0 1 0-139.58zm604.77 0a69.79 69.79 0 1 1 0 139.58 69.79 69.79 0 0 1 0-139.58zM908.78 747.58H255.317l-50.36-473.297H981.1L908.78 747.58zm145.444-536.13a37.942 37.942 0 0 0-28.916-13.223h-828.34L179.03 30.765a38.057 38.057 0 0 0-37.826-33.918H18.18v76h88.99l76.23 716.87c2.012 19.26 18.396 33.92 37.77 33.92h720.32a37.942 37.942 0 0 0 37.54-32.31l83.932-549.352a37.884 37.884 0 0 0-8.738-30.526z" fill="#fff"/></svg>